<svg xmlns="http://www.w3.org/2000/svg" version="1.1" xmlns:xlink="http://www.w3.org/1999/xlink" xmlns:svgjs="http://svgjs.dev/svgjs" width="1000" height="1125" viewBox="0 0 1000 1125"><g transform="matrix(1,0,0,1,1.7053025658242404e-13,0)"><svg viewBox="0 0 320 360" data-background-color="#c9efc7" preserveAspectRatio="xMidYMid meet" height="1125" width="1000" xmlns="http://www.w3.org/2000/svg" xmlns:xlink="http://www.w3.org/1999/xlink"><g id="tight-bounds" transform="matrix(1,0,0,1,0,0)"><svg viewBox="0 0 320 360" height="360" width="320"><g><svg></svg></g><g><svg viewBox="0 0 320 360" height="360" width="320"><g><path xmlns="http://www.w3.org/2000/svg" d="M20.961 227.22l3.726 4.658-1.863-6.056c-0.466-2.795-3.726 0.466-1.863 1.398M25.153 224.425c1.397 2.329 2.795 4.658 2.795 6.987 0 3.261 2.795 4.658 5.123 5.589-3.261-3.726-5.124-13.974-7.918-12.576M204.017 26.929c7.918 0 15.371-0.932 23.756 0.931 20.495 5.124 37.729 15.371 49.374 29.811l32.606 52.169c1.397 13.042 4.192 27.482 3.726 43.319 3.261 0 2.795-4.658 6.521-5.59-3.726 9.316-5.59 20.961-6.521 34.469-2.329-7.453 0-18.632 0.466-24.687-3.261 5.124-5.124 1.397-5.124-0.932 0.466-3.726-1.397-3.261-2.795-4.658-5.124-4.658-8.384-9.782-12.11-17.7 2.329-6.055 2.795-14.905-4.658-19.563-2.329-1.397-5.124-3.726-6.521-7.453-1.863-5.124-5.124-11.179-4.193-19.097 0.466-2.329-6.987 5.124-11.179 1.863-18.166-12.576-36.332-27.016-58.224-39.127-11.645 0-20.029-4.192-24.221-9.316-3.726-4.658-0.932-10.713 4.658-11.179 3.261 0 6.987-0.932 9.782 0.932 0.466-1.863 2.329-4.192 4.657-4.192M157.904 16.215l0.932 0.466c4.658 0.932 6.987 7.453 12.11 5.124 0 3.261 0.466 6.521-0.466 8.85-1.397 3.726-5.59 3.726-8.85 3.726-31.208-1.863-49.374 11.179-68.471 22.358-5.124 3.261-10.713 5.59-14.906 9.782-20.029 18.632-41.921 35.866-47.045 70.335l-4.192 38.195c-0.466 4.192-5.124 8.384-4.192 13.508l3.26 22.824c-3.261-3.261-5.124 0.932-4.192 2.795 0.466 1.397 2.329 6.055 5.124 1.863 3.726 6.987 7.453 20.495 12.576 26.55 15.837 18.632 36.332 35.4 53.101 52.169 4.192-0.932 7.453-0.932 8.384-3.727 1.397 2.795-1.397 5.59-3.726 6.056 7.453 4.658 15.837 8.85 27.016 9.781 14.44 0.932 27.948 3.261 40.524 6.522 6.521-1.863 13.042-2.795 20.029-3.261 2.329 0 3.726-3.726 6.521-4.658l0.466-4.658c2.795 4.192 2.329-1.397 0.466-4.192 3.261 2.795 4.192 5.124 5.589 6.987 0-1.397 3.726-6.521 3.727-0.466l0.931-6.055c1.397-0.932 1.863 5.124 3.261 0.931 1.397-4.192 4.192-0.932 6.987-2.329-0.932 1.863-0.466 5.59 2.794 3.261l3.727-3.261c2.329 5.59 6.055 3.261 7.918 2.329 20.495-13.042 40.99-28.413 60.553-43.784l-0.466 6.055 2.329-7.453c2.329 2.329 4.192 0.466 5.124-0.931 2.795-4.658 6.521-9.316 12.577-13.508-7.453 20.029-16.303 35.866-27.482 48.908l-4.658 5.59c0 3.261-0.932 7.453-4.658 7.918-1.863 0.466-5.59-0.932-8.384 1.863-1.397 1.863 3.261 5.59-0.466 2.795-3.261-2.329-6.521 0-10.248 0.932-2.795 0.932 1.863 3.726 2.795 5.589 0.932 1.863 1.863 3.726 1.398 6.056l-5.124-5.59c-6.055 3.261-9.782 9.316-14.906 13.974-2.329 1.863-1.397 5.124-1.397 7.918-3.261 0-6.987-0.932-8.85 0.932-1.397 1.863-0.932 4.658-0.932 7.453-4.658-0.466-5.124-7.453-9.315-6.056-4.192 0.932-8.85 1.397-12.577 3.727 2.795 5.59-4.658 2.329-3.726 3.26-6.987-4.192-13.042-7.453-20.495-4.658-15.837-5.124-35.4-2.795-49.84-0.931 0-2.329 0.466-4.658-0.466-5.124-0.932 2.329-3.726 1.397-3.26 1.397-8.85-6.055-17.7-9.782-27.016-14.905-8.384 0.932-16.303-3.261-18.632-5.59-6.521-6.055-13.974-2.795-20.029-4.192-13.042-3.261-17.7-16.769-19.098-26.084-0.932-4.658-4.658-6.521-6.055-6.056-6.055-19.563-15.371-37.263-22.824-55.429-1.863-4.658-1.397-9.316-1.397-14.44 2.329 0.932 4.658 0.466 4.192-2.794-2.329-15.371-7.918-27.016-13.974-38.195 3.261-15.837 3.726-34.469 11.179-48.443 6.521-12.576 18.632-19.098 27.016-29.811 2.795-3.726 2.795-8.85 5.59-12.11 9.316-9.316 18.632-19.098 28.879-27.482 4.658-3.726 10.247 0 17.234-1.397 2.329-8.384 11.645-15.837 20.495-13.508 3.726 0.932 11.179-8.85 13.508-9.782 3.726-1.397 1.863 3.726 1.863 6.987 8.85-6.987 20.961-10.713 32.14-14.906" fill="#454545" fill-rule="nonzero" stroke="none" stroke-width="1" stroke-linecap="butt" stroke-linejoin="miter" stroke-miterlimit="10" stroke-dasharray="" stroke-dashoffset="0" font-family="none" font-weight="none" font-size="none" text-anchor="none" style="mix-blend-mode: normal" data-fill-palette-color="tertiary"></path></g><g transform="matrix(1,0,0,1,115.47442018025409,90)"><svg viewBox="0 0 89.05115963949183 180" height="180" width="89.05115963949183"><g><svg viewBox="0 0 89.05115963949183 180" height="180" width="89.05115963949183"><g><svg viewBox="0 0 146.45340751043113 296.02773797217264" height="180" width="89.05115963949183"><g transform="matrix(1,0,0,1,0,116.02773797217264)"><svg viewBox="0 0 146.45340751043113 180" height="180" width="146.45340751043113"><g><svg viewBox="0 0 146.45340751043113 180" height="180" width="146.45340751043113"><g><svg viewBox="0 0 146.45340751043113 180" height="180" width="146.45340751043113"><g transform="matrix(1,0,0,1,0,0)"><svg width="146.45340751043113" viewBox="3.0999999046325684 -35.95000076293945 29.249998092651367 35.95000076293945" height="180" data-palette-color="#454545"><path d="M9.35-32.6Q9.6-31.25 10.53-28.85 11.45-26.45 12.3-24.65L12.3-24.65Q13-23.45 14.18-20.78 15.35-18.1 15.85-16.55L15.85-16.55Q16.15-15.75 16.7-14.55L16.7-14.55 17.45-12.75 18.5-10.4Q19.95-13.25 20.6-14.55L20.6-14.55 23.85-21.05 26.1-25.55Q27.85-29.15 28.45-30.2L28.45-30.2Q29.4-32.15 30.45-33.83 31.5-35.5 31.95-35.5L31.95-35.5Q32.35-35.5 32.35-34.85L32.35-34.85Q32.35-34.25 32.1-33.25L32.1-33.25 31.9-32Q31.7-30.65 31.7-20L31.7-20Q31.7-17.65 31.58-14.3 31.45-10.95 31.35-9.85L31.35-9.85Q31.25-8.55 31.25-6L31.25-6 31.3-1.15 31.3-0.9Q31.3-0.3 31-0.4L31-0.4 30.9-0.4Q30.65-0.4 30.33-0.35 30-0.3 29.65-0.3L29.65-0.3Q29.45-0.35 29.38-0.55 29.3-0.75 29.3-1.25L29.3-1.25 29.3-4.2Q29.3-9.3 29.4-10.2L29.4-10.2Q29.5-11.25 29.63-14.1 29.75-16.95 29.75-18.7L29.75-18.7Q29.7-19.15 29.8-21.5L29.8-21.5 29.85-23.3 29.95-26.9Q29.6-26.4 29.35-25.85L29.35-25.85Q28.85-25 28.4-24L28.4-24 27.9-23Q27.05-21.35 25.95-19.13 24.85-16.9 24.05-15.35L24.05-15.35Q23.15-13.55 21.78-10.73 20.4-7.9 19.65-6.25L19.65-6.25Q18.35-3.2 18.15-3.2L18.15-3.2Q18-3.2 17.7-3.7 17.4-4.2 17.3-4.35L17.3-4.35Q16.95-4.9 16.2-6.68 15.45-8.45 15-9.8L15-9.8Q14.7-10.7 12.4-14.85L12.4-14.85Q10.6-18.3 10.55-18.45L10.55-18.45Q10.05-19.45 9.2-21.8L9.2-21.8Q8.65-23.05 8.35-24L8.35-24 8.25-21.8 8.15-18.4 8.05-8.55 8-0.75Q8-0.3 7.75-0.2 7.5-0.1 7.15-0.13 6.8-0.15 6.6-0.15L6.6-0.15 5.5-0.1Q4.6 0 4.2 0L4.2 0Q3.45 0 3.33-0.33 3.2-0.65 3.25-1.7L3.25-1.7Q3.25-3.35 3.2-4.85L3.2-4.85 3.1-11Q3.1-12.4 3.2-13.93 3.3-15.45 3.35-16.65L3.35-16.65Q3.6-20.25 3.6-21.7L3.6-21.7 3.7-31.1 3.65-33.8Q3.65-35.55 3.9-35.8L3.9-35.8Q4.05-35.95 4.25-35.95L4.25-35.95Q4.4-35.95 4.7-35.85 5-35.75 5.45-35.8L5.45-35.8Q5.9-35.85 6.7-35.85L6.7-35.85Q7.65-35.85 8.1-35.75L8.1-35.75Q8.55-35.6 8.75-35.02 8.95-34.45 9.1-33.73 9.25-33 9.35-32.6L9.35-32.6Z" opacity="1" transform="matrix(1,0,0,1,0,0)" fill="#454545" class="undefined-text-0" data-fill-palette-color="primary" id="text-0"></path></svg></g></svg></g></svg></g></svg></g><g transform="matrix(1,0,0,1,27.972600834492347,0)"><svg viewBox="0 0 90.50820584144644 89.76141797217265" height="89.76141797217265" width="90.50820584144644"><g><svg xmlns="http://www.w3.org/2000/svg" xmlns:xlink="http://www.w3.org/1999/xlink" version="1.1" x="0" y="0" viewBox="0.7534958124160767 0.8368608355522156 46.648033142089844 46.26313781738281" enable-background="new 0 0 48 48" xml:space="preserve" height="89.76141797217265" width="90.50820584144644" class="icon-icon-0" data-fill-palette-color="accent" id="icon-0"><g fill="#454545" data-fill-palette-color="accent"><g fill="#454545" data-fill-palette-color="accent"><g fill="#454545" data-fill-palette-color="accent"><path fill="#454545" d="M0.9 2.4C1.3 11.2 1.3 20.1 1.3 29c0 2.1-0.8 11.5 2.9 11.7 8.7 0.6 17.6 0.1 26.3 0.1 2.4 0 14.7 1.5 15.6-1.8 2.1-7.3 1.1-16.1 0.8-23.6-0.2-4.2-0.4-8.5-0.6-12.7 0-0.9-0.4-1.1-1.2-1.3-3.4-1-8.2-0.1-11.7-0.2-4.5-0.1-9-0.1-13.5-0.2C15.4 1.1 10.9 1 6.4 1c-1.7 0-4.2-0.7-5.5 0.8C0.4 2.3 1.3 3.2 1.8 2.6c1.1-1.2 7-0.4 8.5-0.3 3.2 0 6.4 0.1 9.6 0.1 6.4 0.1 12.9 0.2 19.3 0.3 1.3 0 2.6 0 3.9 0.1 2.8 0 2.2 3.9 2.3 5.5 0.2 3.1 0.3 6.1 0.4 9.2 0.3 6.2 0.3 12.5-0.3 18.7-0.5 5.4-15.4 3.6-18.8 3.6-6.5 0-13 0-19.4 0-5.1 0-4.4-4.7-4.6-8.6-0.1-3.2 0-6.4 0-9.6 0-6.3-0.2-12.7-0.4-19C2.2 1.5 0.9 1.5 0.9 2.4L0.9 2.4z" data-fill-palette-color="accent"></path></g></g><g fill="#454545" data-fill-palette-color="accent"><g fill="#454545" data-fill-palette-color="accent"><path fill="#454545" d="M17.2 10.2c-1.6 1.4-3.8 2.1-5.5 3.3-1 0.7-2.9 2.1-3.3 3.4-0.2 0.9 0.9 1.4 1.5 1.8 2.4 1.5 4.5 3.3 6.4 5.3 0.6 0.6 1.4-0.3 0.9-0.9-1.2-1.2-2.4-2.4-3.7-3.5-0.5-0.4-3.8-2.4-3.3-3.1 2.2-2.6 5.5-3.4 8-5.6C18.7 10.5 17.8 9.6 17.2 10.2L17.2 10.2z" data-fill-palette-color="accent"></path></g></g><g fill="#454545" data-fill-palette-color="accent"><g fill="#454545" data-fill-palette-color="accent"><path fill="#454545" d="M27.2 6.7c-2.7 7.2-5.2 14.5-7.6 21.9-0.3 0.8 1 1.1 1.2 0.3 2.4-7.3 4.9-14.6 7.6-21.9C28.7 6.3 27.5 5.9 27.2 6.7L27.2 6.7z" data-fill-palette-color="accent"></path></g></g><g fill="#454545" data-fill-palette-color="accent"><g fill="#454545" data-fill-palette-color="accent"><path fill="#454545" d="M29.3 11.6c1.5 1.1 2.9 2.3 4.4 3.4 0.9 0.7 1.8 1.4 2.6 2.1 1.3 1 0.7 0.9-0.4 1.7-2.4 1.7-4.3 3.9-6 6.3-0.5 0.7 0.6 1.3 1.1 0.6 1.4-2 3.1-3.8 5-5.4 0.4-0.3 2.7-1.5 2.7-2.4 0-1.2-1.5-1.9-2.3-2.5-2.1-1.6-4.1-3.2-6.2-4.8C29.5 10.2 28.6 11.1 29.3 11.6L29.3 11.6z" data-fill-palette-color="accent"></path></g></g><g fill="#454545" data-fill-palette-color="accent"><g fill="#454545" data-fill-palette-color="accent"><path fill="#454545" d="M2.3 31.9c14.8 0.3 29.5 0.2 44.3-0.3 0.8 0 0.8-1.3 0-1.3-14.8 0.6-29.5 0.7-44.3 0.3C1.5 30.6 1.5 31.9 2.3 31.9L2.3 31.9z" data-fill-palette-color="accent"></path></g></g><g fill="#454545" data-fill-palette-color="accent"><g fill="#454545" data-fill-palette-color="accent"><path fill="#454545" d="M21.1 36.6c1.1 0 2.2 0 3.3 0 0.8 0 0.8-1.3 0-1.3-1.1 0-2.2 0-3.3 0C20.3 35.4 20.3 36.6 21.1 36.6L21.1 36.6z" data-fill-palette-color="accent"></path></g></g><g fill="#454545" data-fill-palette-color="accent"><g fill="#454545" data-fill-palette-color="accent"><path fill="#454545" d="M23.8 40.3c-0.3 1.8-0.4 3.6-0.2 5.5 0.1 0.8 1.3 0.8 1.3 0-0.2-1.7-0.2-3.4 0.1-5.1C25.2 39.8 24 39.5 23.8 40.3L23.8 40.3z" data-fill-palette-color="accent"></path></g></g><g fill="#454545" data-fill-palette-color="accent"><g fill="#454545" data-fill-palette-color="accent"><path fill="#454545" d="M15.1 47.1c6.9 0 13.8 0 20.6 0 0.8 0 0.8-1.3 0-1.3-6.9 0-13.8 0-20.6 0C14.3 45.8 14.3 47.1 15.1 47.1L15.1 47.1z" data-fill-palette-color="accent"></path></g></g></g></svg></g></svg></g><g></g></svg></g></svg></g></svg></g></svg></g><defs></defs></svg><rect width="320" height="360" fill="none" stroke="none" visibility="hidden"></rect></g></svg></g></svg>